<svg width="600" height="320" xmlns="http://www.w3.org/2000/svg">
  <rect x="20" y="40" width="180" height="60" fill="#e3e3e3" stroke="#333" />
  <text x="110" y="75" font-size="16" text-anchor="middle" fill="#333">Core Engine</text>
  <rect x="240" y="20" width="160" height="50" fill="#cce5ff" stroke="#333" />
  <text x="320" y="50" font-size="14" text-anchor="middle" fill="#333">Swarm Agent</text>
  <rect x="240" y="90" width="160" height="50" fill="#cce5ff" stroke="#333" />
  <text x="320" y="120" font-size="14" text-anchor="middle" fill="#333">Swarm Agent</text>
  <rect x="240" y="160" width="160" height="50" fill="#cce5ff" stroke="#333" />
  <text x="320" y="190" font-size="14" text-anchor="middle" fill="#333">Swarm Agent</text>
  <rect x="440" y="40" width="120" height="60" fill="#ffe5cc" stroke="#333" />
  <text x="500" y="75" font-size="14" text-anchor="middle" fill="#333">Solana</text>
  <rect x="440" y="140" width="120" height="60" fill="#ffe5cc" stroke="#333" />
  <text x="500" y="175" font-size="14" text-anchor="middle" fill="#333">External APIs</text>
  <line x1="200" y1="70" x2="240" y2="45" stroke="#333" stroke-width="2"/>
  <line x1="200" y1="70" x2="240" y2="115" stroke="#333" stroke-width="2"/>
  <line x1="200" y1="70" x2="240" y2="185" stroke="#333" stroke-width="2"/>
  <line x1="400" y1="45" x2="440" y2="70" stroke="#333" stroke-width="2"/>
  <line x1="400" y1="115" x2="440" y2="70" stroke="#333" stroke-width="2"/>
  <line x1="400" y1="185" x2="440" y2="170" stroke="#333" stroke-width="2"/>
</svg>
